<svg width="195" height="61" viewBox="0 0 195 61" fill="none" xmlns="http://www.w3.org/2000/svg">
<path d="M53 31L33 31L33 12C33 6.47715 37.4772 2 43 2V2C48.5228 2 53 6.47715 53 12L53 31Z" fill="#37462C"/>
<path d="M0.522588 28.9C0.522588 22.2726 5.89517 16.9 12.5226 16.9H174.329C180.956 16.9 186.329 22.2726 186.329 28.9V49C186.329 55.6274 180.956 61 174.329 61H14.5226C6.79058 61 0.522588 54.732 0.522588 47V28.9Z" fill="#37462C"/>
<path d="M5.63014 25C5.63014 18.3726 11.0027 13 17.6301 13H183C189.627 13 195 18.3726 195 25V44.3774C195 51.0048 189.627 56.3774 183 56.3774H17.6302C11.0027 56.3774 5.63014 51.0048 5.63014 44.3774V25Z" fill="#5F9950"/>
<path d="M58 29L38 29L38 10C38 4.47715 42.4772 5.50298e-07 48 1.03312e-06V1.03312e-06C53.5228 1.51594e-06 58 4.47716 58 10L58 29Z" fill="#5F9950"/>
</svg>
