<svg width="157" height="47" viewBox="0 0 157 47" fill="none" xmlns="http://www.w3.org/2000/svg">
<path fill-rule="evenodd" clip-rule="evenodd" d="M12 4H80V5C80 11.6274 85.3726 17 92 17H94C100.627 17 106 11.6274 106 5V4H140C146.627 4 152 9.37258 152 16V35C152 41.6274 146.627 47 140 47H38V42.5C38 37.2533 33.7467 33 28.5 33C23.2533 33 19 37.2533 19 42.5V47H12C5.37258 47 0 41.6274 0 35V16C0 9.37258 5.37258 4 12 4Z" fill="#1D3045"/>
<path fill-rule="evenodd" clip-rule="evenodd" d="M17 0H85V1.5C85 6.7467 89.2533 11 94.5 11C99.7467 11 104 6.7467 104 1.5V0H145C151.627 0 157 5.37258 157 12V31C157 37.6274 151.627 43 145 43H43V39.5C43 34.2533 38.7467 30 33.5 30C28.2533 30 24 34.2533 24 39.5V43H17C10.3726 43 5 37.6274 5 31V12C5 5.37258 10.3726 0 17 0Z" fill="#509999"/>
</svg>
