<svg width="157" height="47" viewBox="0 0 157 47" fill="none" xmlns="http://www.w3.org/2000/svg">
<path fill-rule="evenodd" clip-rule="evenodd" d="M104.848 10.1366C102.924 14.1942 98.7894 17 94 17H92C85.3726 17 80 11.6274 80 5V4H12C5.37258 4 0 9.37258 0 16V35C0 41.6274 5.37258 47 12 47H19V42.5C19 37.2533 23.2533 33 28.5 33C33.7467 33 38 37.2533 38 42.5V47H140C146.627 47 152 41.6274 152 35V16C152 9.37258 146.627 4 140 4H119.882C119.163 8.53398 115.236 12 110.5 12C108.383 12 106.428 11.3075 104.848 10.1366Z" fill="#1D3045"/>
<path fill-rule="evenodd" clip-rule="evenodd" d="M17 0H101V2.5C101 7.7467 105.253 12 110.5 12C115.747 12 120 7.7467 120 2.5V0H145C151.627 0 157 5.37258 157 12V31C157 37.6274 151.627 43 145 43H43V39.5C43 34.2533 38.7467 30 33.5 30C28.2533 30 24 34.2533 24 39.5V43H17C10.3726 43 5 37.6274 5 31V12C5 5.37258 10.3726 0 17 0Z" fill="#509999"/>
</svg>
