<svg width="179" height="60" viewBox="0 0 179 60" fill="none" xmlns="http://www.w3.org/2000/svg">
<path d="M112 31H131V50.5C131 55.7467 126.747 60 121.5 60V60C116.253 60 112 55.7467 112 50.5V31Z" fill="#37462C"/>
<path d="M0.729039 16.9C0.729039 10.2726 6.10162 4.89999 12.729 4.89999H159.052C165.679 4.89999 171.052 10.2726 171.052 16.9V37C171.052 43.6274 165.679 49 159.052 49H14.729C6.99704 49 0.729039 42.732 0.729039 35V16.9Z" fill="#37462C"/>
<path d="M5.41096 13C5.41096 6.37259 10.7835 1 17.411 1H167C173.627 1 179 6.37258 179 13V32.3773C179 39.0048 173.627 44.3774 167 44.3774H17.411C10.7836 44.3774 5.41096 39.0048 5.41096 32.3774V13Z" fill="#5F9950"/>
<path d="M116 29H135V48.5C135 53.7467 130.747 58 125.5 58V58C120.253 58 116 53.7467 116 48.5V29Z" fill="#5F9950"/>
</svg>
