<svg width="140" height="49" viewBox="0 0 140 49" fill="none" xmlns="http://www.w3.org/2000/svg">
<path fill-rule="evenodd" clip-rule="evenodd" d="M5.49855 6.95718L5 7.93261C4.6264 8.66357 3.97365 9.94069 3.87608 11.764C9.85727 11.9233 14.657 16.8219 14.657 22.8415C14.657 28.0874 10.4044 32.34 5.15855 32.34L3.32363 32.34C2.24672 32.34 1.20524 32.1883 0.21936 31.9052V35C0.21936 42.732 6.48738 49 14.2194 49H121.768C127.89 49 132.941 44.4157 133.676 38.4927C132.451 38.95 131.126 39.2 129.742 39.2H129.288C122.293 39.2 116.623 33.5299 116.623 26.5354C116.623 20.5401 121.483 15.68 127.478 15.68H129.227C130.835 15.68 132.368 16.0028 133.764 16.5872C133.598 10.1043 128.291 4.89999 121.768 4.89999H12.2194C9.7291 4.89999 7.41602 5.65854 5.49855 6.95718Z" fill="#1D3045"/>
<path fill-rule="evenodd" clip-rule="evenodd" d="M4.25902 10.0369C5.57826 4.84253 10.2856 1 15.8904 1H128C134.627 1 140 6.37258 140 13V20.1583H133.965C128.939 20.1583 124.865 24.2326 124.865 29.2585C124.865 34.2845 128.939 38.3588 133.965 38.3588H138.405C136.333 41.9558 132.449 44.3774 128 44.3774H15.8904C9.263 44.3774 3.89041 39.0048 3.89041 32.3774V29.9182H8.96875C14.4588 29.9182 18.9094 25.4677 18.9094 19.9776C18.9094 14.4875 14.4588 10.0369 8.96875 10.0369H4.25902Z" fill="#509999"/>
</svg>
